<svg class="position-relative z-2 top-navigation__logo" xmlns="http://www.w3.org/2000/svg" viewBox="0 0 283.5 283.5">
                        <path class="top-navigation__logo__seco-type" d="M272.1 113.4h-37.8a10.97 10.97 0 0 0-11 11v37.8a10.97 10.97 0 0 0 11 11h37.8a10.97 10.97 0 0 0 11-11v-37.8a10.97 10.97 0 0 0-11-11zm.3 47.6a1.58 1.58 0 0 1-1.6 1.6h-35.3a1.58 1.58 0 0 1-1.6-1.6v-35.3a1.58 1.58 0 0 1 1.6-1.6h35.3a1.58 1.58 0 0 1 1.6 1.6V161zM0 124.4v13.2a10.97 10.97 0 0 0 11 11h36.6a1.58 1.58 0 0 1 1.6 1.6V161a1.58 1.58 0 0 1-1.6 1.6H0v10.7h48.8a10.97 10.97 0 0 0 11-11V149a10.97 10.97 0 0 0-11-11H12.2a1.58 1.58 0 0 1-1.6-1.6v-10.7a1.58 1.58 0 0 1 1.6-1.6h47.6v-10.7H11a10.97 10.97 0 0 0-11 11zm148.9 0v37.8a10.97 10.97 0 0 0 11 11h48.8v-10.7h-47.6a1.58 1.58 0 0 1-1.6-1.6v-35.3a1.58 1.58 0 0 1 1.6-1.6h47.6v-10.7h-48.8c-6.1.1-11 5-11 11.1zm-74.5 0v37.8c0 6.1 5 11 11 11h48.8v-10.7H86.7a1.58 1.58 0 0 1-1.6-1.6v-10.7a1.58 1.58 0 0 1 1.6-1.6h36.8V138H86.7a1.58 1.58 0 0 1-1.6-1.6v-10.7a1.58 1.58 0 0 1 1.6-1.6h47.6v-10.7H85.4c-6 0-11 4.9-11 11z"></path>
                        <path d="M208.7 195.3c0-.7-.5-1.2-1.2-1.2-.2 0-.4.1-.6.2h0c-27.5 16-63.7 23.9-102 22.3-38.9-1.7-75.9-13.4-103-32.4-.1 0-.1-.1-.2-.1h0c-.2-.1-.4-.1-.5-.1-.7 0-1.2.5-1.2 1.2v19.5a1.1 1.1 0 0 0 .6 1h0c28.1 16.4 65.1 24.4 104.3 22.7 39.1-1.7 75.8-13.1 103.3-32.1h0c.3-.2.5-.6.5-1z" fill="#007cc5"></path>
                        <path d="M74.4 91.3c0 .7.5 1.2 1.2 1.2.2 0 .4-.1.6-.2h0c27.5-16 63.7-23.9 102-22.3 38.8 1.7 75.8 13.4 102.9 32.4.1 0 .1.1.2.1h0c.2.1.4.1.5.1.7 0 1.2-.5 1.2-1.2h0V82a1.1 1.1 0 0 0-.6-1c-28.1-16.4-65.1-24.4-104.3-22.7-38.9 1.7-75.6 13.1-103.1 32h0c-.3.2-.6.6-.6 1z" fill="#e52713"></path>
                    </svg>